<svg width="36" height="36" viewBox="0 0 36 36" fill="none" xmlns="http://www.w3.org/2000/svg">
<circle opacity="0.5" cx="18" cy="18" r="18" fill="#7542C8"/>
<circle cx="18" cy="18" r="15" fill="#7542C8"/>
<path d="M25.9688 13.5312H25.961C25.8488 13.341 25.6902 13.1824 25.5001 13.0703L18.6251 9.18745C18.4374 9.08348 18.2263 9.02893 18.0118 9.02893C17.7972 9.02893 17.5862 9.08348 17.3985 9.18745L10.5235 13.0546C10.3294 13.1643 10.1677 13.3233 10.0547 13.5156C10.0547 13.5166 10.0545 13.5176 10.0541 13.5186C10.0538 13.5195 10.0532 13.5204 10.0525 13.5211C10.0517 13.5218 10.0509 13.5224 10.0499 13.5228C10.049 13.5232 10.048 13.5234 10.0469 13.5234V13.539C9.93755 13.7233 9.8808 13.9341 9.88287 14.1484V21.8515C9.88326 22.0742 9.94278 22.2928 10.0553 22.485C10.1679 22.6771 10.3294 22.836 10.5235 22.9453L17.3985 26.8124C17.5716 26.9069 17.764 26.9603 17.961 26.9687H18.0704C18.2647 26.9591 18.4543 26.9057 18.6251 26.8124L25.5001 22.9453C25.6921 22.8344 25.8517 22.675 25.9627 22.483C26.0738 22.291 26.1325 22.0733 26.1329 21.8515V14.1484C26.134 13.9317 26.0774 13.7187 25.9688 13.5312ZM18.0079 10.2812L24.2422 13.7812L21.8438 15.1406L15.5469 11.664L18.0079 10.2812ZM18.0782 17.2812L11.7891 13.7812L14.2657 12.3906L20.5704 15.8671L18.0782 17.2812ZM11.1329 14.8437L17.4532 18.3671L17.3907 25.3749L11.1329 21.8515V14.8437ZM18.6407 25.3671L18.7032 18.3671L21.211 16.9374V19.914C21.211 20.0798 21.2768 20.2387 21.3941 20.3559C21.5113 20.4732 21.6702 20.539 21.836 20.539C22.0018 20.539 22.1607 20.4732 22.2779 20.3559C22.3951 20.2387 22.461 20.0798 22.461 19.914V16.2265L24.8829 14.8515V21.8515L18.6407 25.3671Z" fill="white"/>
</svg>
