<svg width="24" height="24" viewBox="0 0 24 24" fill="none" xmlns="http://www.w3.org/2000/svg">
<circle opacity="0.5" cx="12" cy="12" r="12" fill="#7542C8"/>
<circle cx="12" cy="12" r="10" fill="#7542C8"/>
<path d="M17.3126 9.02083H17.3074C17.2326 8.89405 17.1269 8.78832 17.0001 8.71354L12.4168 6.125C12.2917 6.05569 12.151 6.01932 12.0079 6.01932C11.8649 6.01932 11.7242 6.05569 11.5991 6.125L7.01574 8.70312C6.88633 8.77624 6.77852 8.88225 6.70324 9.01042C6.70324 9.0111 6.70311 9.01178 6.70285 9.01241C6.70258 9.01304 6.7022 9.01362 6.70172 9.0141C6.70123 9.01458 6.70066 9.01497 6.70003 9.01523C6.6994 9.01549 6.69872 9.01562 6.69803 9.01562V9.02604C6.62511 9.14891 6.58728 9.28942 6.58866 9.43229V14.5677C6.58892 14.7162 6.6286 14.8619 6.70364 14.99C6.77867 15.1181 6.88638 15.224 7.01574 15.2969L11.5991 17.875C11.7145 17.9379 11.8428 17.9736 11.9741 17.9792H12.047C12.1765 17.9728 12.303 17.9372 12.4168 17.875L17.0001 15.2969C17.1282 15.223 17.2345 15.1167 17.3086 14.9887C17.3826 14.8607 17.4217 14.7156 17.422 14.5677V9.43229C17.4228 9.28785 17.385 9.14583 17.3126 9.02083ZM12.0053 6.85417L16.1616 9.1875L14.5626 10.0937L10.3647 7.77604L12.0053 6.85417ZM12.0522 11.5208L7.85949 9.1875L9.51053 8.26042L13.7137 10.5781L12.0522 11.5208ZM7.42199 9.89583L11.6355 12.2448L11.5939 16.9167L7.42199 14.5677V9.89583ZM12.4272 16.9115L12.4689 12.2448L14.1407 11.2917V13.276C14.1407 13.3865 14.1846 13.4925 14.2628 13.5707C14.3409 13.6488 14.4469 13.6927 14.5574 13.6927C14.6679 13.6927 14.7739 13.6488 14.852 13.5707C14.9302 13.4925 14.9741 13.3865 14.9741 13.276V10.8177L16.5887 9.90104V14.5677L12.4272 16.9115Z" fill="white"/>
</svg>
