<svg width="48" height="66" viewBox="0 0 48 66" fill="none" xmlns="http://www.w3.org/2000/svg">
<circle opacity="0.3" cx="24" cy="48" r="18" fill="#4685FF"/>
<path d="M24 44C21.79 44 20 45.79 20 48C20 50.21 21.79 52 24 52C26.21 52 28 50.21 28 48C28 45.79 26.21 44 24 44ZM32.94 47C32.48 42.83 29.17 39.52 25 39.06V37H23V39.06C18.83 39.52 15.52 42.83 15.06 47H13V49H15.06C15.52 53.17 18.83 56.48 23 56.94V59H25V56.94C29.17 56.48 32.48 53.17 32.94 49H35V47H32.94ZM24 55C20.13 55 17 51.87 17 48C17 44.13 20.13 41 24 41C27.87 41 31 44.13 31 48C31 51.87 27.87 55 24 55Z" fill="#4685FF"/>
<g clip-path="url(#clip0_1998_32743)">
<path d="M24.0188 3C19.6442 3.00496 15.4502 4.74494 12.357 7.83822C9.26369 10.9315 7.52371 15.1255 7.51875 19.5C7.51875 33.6187 22.5187 44.2875 23.1562 44.7375C23.4117 44.9076 23.7118 44.9984 24.0188 44.9984C24.3257 44.9984 24.6258 44.9076 24.8812 44.7375C25.5187 44.2875 40.5187 33.6187 40.5187 19.5C40.5138 15.1255 38.7738 10.9315 35.6805 7.83822C32.5873 4.74494 28.3933 3.00496 24.0188 3ZM24.0188 13.5C25.2054 13.5 26.3655 13.8519 27.3522 14.5112C28.3389 15.1705 29.1079 16.1075 29.562 17.2039C30.0162 18.3003 30.135 19.5067 29.9035 20.6705C29.6719 21.8344 29.1005 22.9035 28.2614 23.7426C27.4223 24.5818 26.3532 25.1532 25.1893 25.3847C24.0254 25.6162 22.819 25.4974 21.7226 25.0433C20.6263 24.5892 19.6892 23.8201 19.0299 22.8334C18.3706 21.8467 18.0187 20.6867 18.0187 19.5C18.0187 17.9087 18.6509 16.3826 19.7761 15.2574C20.9013 14.1321 22.4275 13.5 24.0188 13.5Z" fill="#F14336"/>
<path d="M12.7105 8.19177C15.71 5.19226 19.7768 3.50496 24.0188 3.5C28.2607 3.50496 32.3275 5.19226 35.327 8.19177C38.3266 11.1914 40.0139 15.2584 40.0187 19.5006C40.0186 26.3853 36.3569 32.4686 32.5587 36.92C28.7911 41.3355 24.944 44.0809 24.5989 44.3248C24.4267 44.438 24.225 44.4984 24.0188 44.4984C23.8125 44.4984 23.6108 44.438 23.4386 44.3247C23.0934 44.0808 19.2464 41.3355 15.4788 36.92C11.6805 32.4686 8.01885 26.3851 8.01875 19.5003C8.02364 15.2582 9.71094 11.1913 12.7105 8.19177ZM27.63 14.0954C26.561 13.3812 25.3043 13 24.0188 13C22.2948 13 20.6415 13.6848 19.4226 14.9038C18.2036 16.1228 17.5187 17.7761 17.5187 19.5C17.5187 20.7856 17.9 22.0423 18.6142 23.1112C19.3284 24.1801 20.3436 25.0132 21.5313 25.5052C22.719 25.9972 24.026 26.1259 25.2868 25.8751C26.5477 25.6243 27.7059 25.0052 28.6149 24.0962C29.524 23.1872 30.143 22.029 30.3939 20.7681C30.6447 19.5072 30.5159 18.2003 30.024 17.0126C29.532 15.8248 28.6989 14.8097 27.63 14.0954Z" fill="#F14336" stroke="#8A1E16"/>
</g>
<defs>
<clipPath id="clip0_1998_32743">
<rect width="48" height="48" fill="white"/>
</clipPath>
</defs>
</svg>
