<svg width="24" height="24" viewBox="0 0 24 24" fill="none" xmlns="http://www.w3.org/2000/svg">
<circle opacity="0.5" cx="12" cy="12" r="12" fill="#FFBF60"/>
<circle cx="12" cy="12" r="10" fill="#FFBF60"/>
<path d="M17.3126 11.0208H17.3074C17.2326 10.8941 17.1269 10.7883 17.0001 10.7135L12.4168 8.125C12.2917 8.05569 12.151 8.01932 12.0079 8.01932C11.8649 8.01932 11.7242 8.05569 11.5991 8.125L7.01574 10.7031C6.88633 10.7762 6.77852 10.8822 6.70324 11.0104C6.70324 11.0111 6.70311 11.0118 6.70285 11.0124C6.70258 11.013 6.7022 11.0136 6.70172 11.0141C6.70123 11.0146 6.70066 11.015 6.70003 11.0152C6.6994 11.0155 6.69872 11.0156 6.69803 11.0156V11.026C6.62511 11.1489 6.58728 11.2894 6.58866 11.4323V16.5677C6.58892 16.7162 6.6286 16.8619 6.70364 16.99C6.77867 17.1181 6.88638 17.224 7.01574 17.2969L11.5991 19.875C11.7145 19.9379 11.8428 19.9736 11.9741 19.9792H12.047C12.1765 19.9728 12.303 19.9372 12.4168 19.875L17.0001 17.2969C17.1282 17.223 17.2345 17.1167 17.3086 16.9887C17.3826 16.8607 17.4217 16.7156 17.422 16.5677V11.4323C17.4228 11.2879 17.385 11.1458 17.3126 11.0208ZM12.0053 8.85417L16.1616 11.1875L14.5626 12.0937L10.3647 9.77604L12.0053 8.85417ZM12.0522 13.5208L7.85949 11.1875L9.51053 10.2604L13.7137 12.5781L12.0522 13.5208ZM7.42199 11.8958L11.6355 14.2448L11.5939 18.9167L7.42199 16.5677V11.8958ZM12.4272 18.9115L12.4689 14.2448L14.1407 13.2917V15.276C14.1407 15.3865 14.1846 15.4925 14.2628 15.5707C14.3409 15.6488 14.4469 15.6927 14.5574 15.6927C14.6679 15.6927 14.7739 15.6488 14.852 15.5707C14.9302 15.4925 14.9741 15.3865 14.9741 15.276V12.8177L16.5887 11.901V16.5677L12.4272 18.9115Z" fill="white"/>
<path d="M12.2357 4.43096C12.1055 4.30079 11.8945 4.30079 11.7643 4.43096L9.64298 6.55228C9.5128 6.68246 9.5128 6.89351 9.64298 7.02369C9.77315 7.15386 9.98421 7.15386 10.1144 7.02369L12 5.13807L13.8856 7.02369C14.0158 7.15386 14.2268 7.15386 14.357 7.02369C14.4872 6.89351 14.4872 6.68246 14.357 6.55228L12.2357 4.43096ZM12.3333 8.66667L12.3333 4.66667L11.6667 4.66667L11.6667 8.66667L12.3333 8.66667Z" fill="white"/>
</svg>
