<svg width="32" height="32" viewBox="0 0 32 32" fill="none" xmlns="http://www.w3.org/2000/svg">
<circle cx="16" cy="16" r="16" fill="#4685FF"/>
<path d="M16.5005 15.5421C16.5005 15.0545 16.208 14.6195 15.7655 14.432L11.5802 12.6618C10.4701 13.9219 9.84007 15.437 9.48004 16.7496H15.2929C15.9605 16.7496 16.5005 16.2096 16.5005 15.5421Z" fill="white"/>
<path d="M23.971 15.4145C23.6635 12.1068 20.5508 9.79665 17.2356 10.0142C15.3529 10.1342 13.9053 10.7192 12.7878 11.5443L16.343 13.0519C17.3406 13.4794 17.9931 14.4545 17.9931 15.542C17.9931 17.0347 16.778 18.2497 15.2854 18.2497H9.15751C9 19.2323 9 19.8999 9 19.8999V20.4999C9 21.325 9.67505 22 10.5001 22H18.0006C21.5034 22 24.3086 18.9923 23.971 15.4145Z" fill="white"/>
</svg>
