<svg width="36" height="37" viewBox="0 0 36 37" fill="none" xmlns="http://www.w3.org/2000/svg">
<circle opacity="0.5" cx="18" cy="18.5281" r="18" fill="#3374F0"/>
<circle cx="18" cy="18.5281" r="15" fill="#3374F0"/>
<path d="M14.95 25.2281V25.2781H12C11.5875 25.2781 11.2345 25.1313 10.941 24.8378C10.647 24.5438 10.5 24.1906 10.5 23.7781V15.7906C10.5 15.4781 10.5845 15.1968 10.7535 14.9468C10.922 14.6968 11.15 14.5156 11.4375 14.4031L15 19.2781V19.3281V25.2281H14.95ZM14.95 25.2281V19.2781V19.2281H15H21H21.05V19.2781V25.2281H24C24.3991 25.2281 24.7397 25.0866 25.0244 24.8024L25.0597 24.8378L25.0244 24.8025C25.3086 24.5178 25.45 24.1772 25.45 23.7781V15.7906C25.45 15.4876 25.3685 15.2162 25.2058 14.9748C25.0426 14.7334 24.8226 14.5585 24.5443 14.4496L24.5439 14.4495L18.5439 12.0495L18.5428 12.049L18.5428 12.049C18.3743 11.9768 18.1936 11.9406 18 11.9406C17.8064 11.9406 17.6257 11.9768 17.4572 12.049L17.4561 12.0495L17.4561 12.0495L11.4561 14.4495L11.4557 14.4496C11.1774 14.5585 10.9576 14.7334 10.795 14.9748L10.7949 14.9748C10.6317 15.2162 10.55 15.4877 10.55 15.7906V23.7781C10.55 24.1772 10.6916 24.5178 10.9764 24.8025C11.2605 25.0866 11.6009 25.2281 12 25.2281H14.95ZM18.0186 13.3441L18 13.3367L17.9814 13.3441L11.9814 15.7441L11.95 15.7567V15.7906V23.7781V23.8281H12H13.5H13.55V23.7781V19.2781C13.55 18.8789 13.6916 18.5384 13.9764 18.2537C14.2605 17.9695 14.6009 17.8281 15 17.8281H21C21.3991 17.8281 21.7397 17.9695 22.0244 18.2537C22.3086 18.5384 22.45 18.8789 22.45 19.2781V23.7781V23.8281H22.5H24H24.05V23.7781V15.7906V15.7567L24.0186 15.7441L18.0186 13.3441ZM15.8 25.2281V23.8281H17.2V25.2281H15.8ZM17.3 22.9781V21.5781H18.7V22.9781H17.3ZM18.8 25.2281V23.8281H20.2V25.2281H18.8Z" fill="white" stroke="#3373F0" stroke-width="0.1"/>
</svg>
