<svg width="48" height="48" viewBox="0 0 48 48" fill="none" xmlns="http://www.w3.org/2000/svg">
<rect width="48" height="48" rx="24" fill="#FAD1D1"/>
<g clip-path="url(#clip0_376_26271)">
<path d="M23 27H25V29H23V27ZM23 19H25V25H23V19ZM23.99 14C18.47 14 14 18.48 14 24C14 29.52 18.47 34 23.99 34C29.52 34 34 29.52 34 24C34 18.48 29.52 14 23.99 14ZM24 32C19.58 32 16 28.42 16 24C16 19.58 19.58 16 24 16C28.42 16 32 19.58 32 24C32 28.42 28.42 32 24 32Z" fill="#F04438"/>
</g>
<defs>
<clipPath id="clip0_376_26271">
<rect width="32" height="32" fill="white" transform="translate(8 8)"/>
</clipPath>
</defs>
</svg>
