<svg width="24" height="30" viewBox="0 0 24 30" fill="none" xmlns="http://www.w3.org/2000/svg">
<g opacity="0.6" clip-path="url(#clip0_376_26221)">
<path d="M20.4 9.00001C20.4 7.68001 19.32 6.60001 18 6.60001H14.4V9.00001H18V12.18L13.824 17.4H9.6V11.4H4.8C2.148 11.4 0 13.548 0 16.2V19.8H2.4C2.4 21.792 4.008 23.4 6 23.4C7.992 23.4 9.6 21.792 9.6 19.8H14.976L20.4 13.02V9.00001ZM2.4 17.4V16.2C2.4 14.88 3.48 13.8 4.8 13.8H7.2V17.4H2.4ZM6 21C5.34 21 4.8 20.46 4.8 19.8H7.2C7.2 20.46 6.66 21 6 21Z" fill="black"/>
<path d="M3.59998 7.8H9.59998V10.2H3.59998V7.8ZM20.4 16.2C18.408 16.2 16.8 17.808 16.8 19.8C16.8 21.792 18.408 23.4 20.4 23.4C22.392 23.4 24 21.792 24 19.8C24 17.808 22.392 16.2 20.4 16.2ZM20.4 21C19.74 21 19.2 20.46 19.2 19.8C19.2 19.14 19.74 18.6 20.4 18.6C21.06 18.6 21.6 19.14 21.6 19.8C21.6 20.46 21.06 21 20.4 21Z" fill="black"/>
</g>
<defs>
<clipPath id="clip0_376_26221">
<rect width="24" height="28.8" fill="white" transform="translate(0 0.600006)"/>
</clipPath>
</defs>
</svg>
