<svg width="36" height="36" viewBox="0 0 36 36" fill="none" xmlns="http://www.w3.org/2000/svg">
<circle opacity="0.5" cx="18" cy="18" r="18" fill="#FFBF60"/>
<circle cx="18" cy="18" r="15" fill="#FFBF60"/>
<path d="M25.9688 16.5313H25.961C25.8488 16.3411 25.6902 16.1825 25.5001 16.0703L18.6251 12.1875C18.4374 12.0835 18.2263 12.029 18.0118 12.029C17.7972 12.029 17.5862 12.0835 17.3985 12.1875L10.5235 16.0547C10.3294 16.1644 10.1677 16.3234 10.0547 16.5156C10.0547 16.5167 10.0545 16.5177 10.0541 16.5186C10.0538 16.5196 10.0532 16.5204 10.0525 16.5212C10.0517 16.5219 10.0509 16.5225 10.0499 16.5228C10.049 16.5232 10.048 16.5234 10.0469 16.5234V16.5391C9.93755 16.7234 9.8808 16.9341 9.88287 17.1484V24.8516C9.88326 25.0743 9.94278 25.2929 10.0553 25.485C10.1679 25.6772 10.3294 25.836 10.5235 25.9453L17.3985 29.8125C17.5716 29.9069 17.764 29.9604 17.961 29.9688H18.0704C18.2647 29.9592 18.4543 29.9058 18.6251 29.8125L25.5001 25.9453C25.6921 25.8344 25.8517 25.675 25.9627 25.4831C26.0738 25.2911 26.1325 25.0733 26.1329 24.8516V17.1484C26.134 16.9318 26.0774 16.7187 25.9688 16.5313ZM18.0079 13.2813L24.2422 16.7813L21.8438 18.1406L15.5469 14.6641L18.0079 13.2813ZM18.0782 20.2813L11.7891 16.7813L14.2657 15.3906L20.5704 18.8672L18.0782 20.2813ZM11.1329 17.8438L17.4532 21.3672L17.3907 28.375L11.1329 24.8516V17.8438ZM18.6407 28.3672L18.7032 21.3672L21.211 19.9375V22.9141C21.211 23.0798 21.2768 23.2388 21.3941 23.356C21.5113 23.4732 21.6702 23.5391 21.836 23.5391C22.0018 23.5391 22.1607 23.4732 22.2779 23.356C22.3951 23.2388 22.461 23.0798 22.461 22.9141V19.2266L24.8829 17.8516V24.8516L18.6407 28.3672Z" fill="white"/>
<path d="M18.3536 6.64645C18.1583 6.45118 17.8417 6.45118 17.6464 6.64645L14.4645 9.82843C14.2692 10.0237 14.2692 10.3403 14.4645 10.5355C14.6597 10.7308 14.9763 10.7308 15.1716 10.5355L18 7.70711L20.8284 10.5355C21.0237 10.7308 21.3403 10.7308 21.5355 10.5355C21.7308 10.3403 21.7308 10.0237 21.5355 9.82843L18.3536 6.64645ZM18.5 13L18.5 7L17.5 7L17.5 13L18.5 13Z" fill="white"/>
</svg>
