<svg width="24" height="21" viewBox="0 0 24 21" fill="none" xmlns="http://www.w3.org/2000/svg">
<g filter="url(#filter0_d_376_33308)">
<path d="M18.52 5.3565C18.8466 5.26899 19.1354 5.07648 19.3418 4.80867C19.5482 4.54084 19.6608 4.21257 19.6623 3.87445V3.87043C19.6623 3.46406 19.5009 3.07432 19.2134 2.78698C18.9261 2.49963 18.5364 2.3382 18.13 2.3382H18.1261C17.788 2.33967 17.4598 2.4523 17.192 2.65871C16.9243 2.86511 16.7317 3.15386 16.6443 3.48043C16.394 4.38716 15.8531 5.18674 15.1047 5.75655C14.3562 6.32635 13.4416 6.63492 12.5009 6.63492C11.5603 6.63492 10.6456 6.32635 9.89718 5.75655C9.14875 5.18674 8.6079 4.38716 8.35758 3.48043C8.27002 3.15388 8.0775 2.86518 7.80971 2.65883C7.54191 2.45246 7.21369 2.33989 6.87561 2.33845H6.87159C6.46522 2.33845 6.07548 2.49988 5.78813 2.78723C5.50079 3.07458 5.33936 3.46431 5.33936 3.87069V3.87471C5.34085 4.21279 5.45348 4.541 5.65988 4.80877C5.86629 5.07653 6.15502 5.269 6.48159 5.3565C7.38832 5.60682 8.18791 6.14767 8.75771 6.8961C9.32751 7.64452 9.63608 8.55921 9.63608 9.49985C9.63608 10.4405 9.32751 11.3552 8.75771 12.1036C8.18791 12.8521 7.38832 13.3929 6.48159 13.6432C6.15504 13.7307 5.86633 13.9232 5.65994 14.1909C5.45355 14.4587 5.34094 14.7869 5.33944 15.1249V15.1289C5.33944 15.5354 5.50087 15.925 5.78822 16.2124C6.07558 16.4998 6.4653 16.6612 6.87168 16.6612H6.8757C7.21378 16.6597 7.54199 16.547 7.80976 16.3407C8.07752 16.1342 8.26999 15.8455 8.35749 15.5189C8.60782 14.6122 9.14867 13.8126 9.89709 13.2429C10.6455 12.673 11.5602 12.3644 12.5008 12.3644C13.4415 12.3644 14.3562 12.673 15.1046 13.2429C15.853 13.8126 16.3939 14.6122 16.6442 15.5189C16.7317 15.8455 16.9242 16.1343 17.1919 16.3408C17.4597 16.5471 17.788 16.6598 18.1261 16.6613H18.1301C18.5364 16.6613 18.9262 16.4998 19.2135 16.2124C19.5009 15.9251 19.6623 15.5354 19.6623 15.129V15.1249C19.6609 14.7868 19.5482 14.4586 19.3418 14.1909C19.1354 13.9231 18.8467 13.7307 18.5201 13.6431C17.6134 13.3928 16.8138 12.852 16.244 12.1035C15.6742 11.3551 15.3656 10.4404 15.3656 9.49977C15.3656 8.55912 15.6742 7.64445 16.244 6.89602C16.8138 6.14759 17.6134 5.60674 18.5201 5.35642L18.52 5.3565Z" fill="#3544B6"/>
<path d="M5.00537 0.907433C5.05466 0.956453 5.118 0.988896 5.18658 1.00025C5.25516 1.0116 5.32557 1.0013 5.38803 0.970781C5.95788 0.695581 6.59906 0.603922 7.22319 0.708438C7.84733 0.812955 8.42366 1.10851 8.87277 1.55434C8.93468 1.61672 9.01834 1.65269 9.10621 1.6547C9.19407 1.65671 9.2793 1.6246 9.34399 1.56511C9.37613 1.53442 9.40182 1.49763 9.41955 1.45688C9.43727 1.41612 9.44666 1.37224 9.44718 1.3278C9.4477 1.28337 9.43933 1.23928 9.42256 1.19812C9.40579 1.15697 9.38097 1.11958 9.34955 1.08816C8.80189 0.541846 8.09779 0.179516 7.3349 0.0514354C6.57202 -0.0766456 5.78819 0.0358726 5.09215 0.373379C5.04476 0.396878 5.00365 0.431337 4.97224 0.473899C4.94083 0.516461 4.92002 0.565899 4.91153 0.618111C4.90305 0.670324 4.90714 0.723806 4.92346 0.774123C4.93978 0.82444 4.96786 0.870142 5.00537 0.907433Z" fill="#3544B6"/>
<path d="M3.37467 2.08883C3.03757 2.78263 2.9241 3.56394 3.04989 4.32498C3.17568 5.08602 3.53454 5.78926 4.07697 6.33768C4.13401 6.39762 4.21082 6.43488 4.29321 6.44256C4.37559 6.45025 4.45797 6.42784 4.52511 6.37949C4.56314 6.35075 4.59458 6.31418 4.61728 6.27226C4.63999 6.23034 4.65345 6.18403 4.65673 6.13647C4.66002 6.08892 4.65307 6.0412 4.63636 5.99655C4.61964 5.9519 4.59354 5.91136 4.55982 5.87766C4.11171 5.42845 3.81438 4.851 3.70904 4.22531C3.60371 3.59961 3.69557 2.95664 3.9719 2.38548C4.00265 2.32296 4.01313 2.25239 4.00186 2.18363C3.9906 2.11486 3.95816 2.05134 3.90907 2.00189C3.87174 1.96434 3.82601 1.93624 3.77565 1.91991C3.7253 1.90359 3.67177 1.89951 3.61953 1.908C3.56728 1.91651 3.51781 1.93734 3.47522 1.9688C3.43264 2.00024 3.39817 2.04139 3.37467 2.08883Z" fill="#3544B6"/>
<path d="M19.6119 18.0289C19.0419 18.3042 18.4005 18.3958 17.7762 18.2911C17.1519 18.1864 16.5755 17.8906 16.1264 17.4445C16.0646 17.3825 15.9812 17.3467 15.8937 17.3447C15.8061 17.3426 15.7212 17.3746 15.6566 17.4339C15.6243 17.4645 15.5985 17.5013 15.5806 17.5421C15.5629 17.5829 15.5534 17.6268 15.5528 17.6714C15.5522 17.7159 15.5605 17.7601 15.5773 17.8013C15.5941 17.8426 15.6189 17.88 15.6504 17.9115C16.198 18.4578 16.9021 18.8201 17.665 18.9482C18.4279 19.0763 19.2117 18.9638 19.9078 18.6263C19.9552 18.6028 19.9963 18.5683 20.0277 18.5257C20.0591 18.4832 20.0799 18.4338 20.0883 18.3815C20.0968 18.3293 20.0927 18.2758 20.0764 18.2255C20.0601 18.1751 20.0319 18.1295 19.9944 18.0922C19.9452 18.0432 19.8818 18.0108 19.8132 17.9995C19.7448 17.9881 19.6743 17.9984 19.6119 18.0289Z" fill="#3544B6"/>
<path d="M20.434 12.6573C20.3747 12.7219 20.3428 12.8068 20.3448 12.8944C20.3468 12.9819 20.3826 13.0654 20.4447 13.1271C20.8911 13.5765 21.187 14.1535 21.2914 14.7782C21.3958 15.4031 21.3037 16.0449 21.0277 16.6151C20.9971 16.6776 20.9868 16.748 20.998 16.8167C21.0094 16.8853 21.0418 16.9487 21.0909 16.9981C21.1282 17.0356 21.1738 17.0636 21.2241 17.0801C21.2744 17.0964 21.3278 17.1005 21.38 17.092C21.4322 17.0836 21.4817 17.0629 21.5242 17.0315C21.5667 17.0001 21.6013 16.9591 21.6248 16.9117C21.9633 16.2155 22.0766 15.4311 21.9489 14.6676C21.8211 13.904 21.4588 13.1992 20.912 12.6511C20.8806 12.6195 20.8431 12.5947 20.8018 12.5778C20.7605 12.561 20.7163 12.5526 20.6717 12.5532C20.6271 12.5538 20.5832 12.5633 20.5423 12.5812C20.5014 12.5991 20.4647 12.6249 20.434 12.6573Z" fill="#3544B6"/>
<path d="M21.0283 2.38605C21.304 2.95616 21.3959 3.59779 21.2914 4.22236C21.1868 4.84693 20.8909 5.42366 20.4447 5.87293C20.3826 5.93468 20.3468 6.01807 20.3448 6.10562C20.3428 6.19317 20.3747 6.27809 20.434 6.34261C20.4646 6.37491 20.5014 6.40076 20.5422 6.41861C20.583 6.43645 20.6269 6.44595 20.6715 6.44654C20.716 6.44713 20.7601 6.4388 20.8014 6.42203C20.8426 6.40527 20.8802 6.38042 20.9116 6.34894C21.4582 5.80103 21.8206 5.09654 21.9485 4.33328C22.0765 3.57002 21.9637 2.78586 21.6256 2.08966C21.6021 2.04229 21.5676 2.00122 21.525 1.96985C21.4824 1.93846 21.433 1.91769 21.3808 1.90924C21.3286 1.90079 21.2751 1.90491 21.2249 1.92125C21.1745 1.9376 21.1288 1.9657 21.0916 2.00323C21.0426 2.05255 21.0101 2.11592 20.9987 2.18453C20.9874 2.25314 20.9978 2.32358 21.0283 2.38605Z" fill="#3544B6"/>
<path d="M16.1264 1.5552C16.5757 1.10888 17.1524 0.813025 17.777 0.708467C18.4015 0.603909 19.0431 0.695807 19.6133 0.971473C19.6758 1.00207 19.7462 1.01242 19.8148 1.0011C19.8834 0.989776 19.9468 0.957333 19.9961 0.908296C20.0336 0.871031 20.0618 0.82535 20.0781 0.77505C20.0944 0.72475 20.0985 0.671278 20.0901 0.619068C20.0817 0.566858 20.0609 0.517414 20.0295 0.474838C19.9982 0.43226 19.957 0.397776 19.9097 0.374244C19.2134 0.0362091 18.4293 -0.0766689 17.6661 0.0512828C16.9028 0.179235 16.1983 0.541665 15.6504 1.08825C15.6189 1.11974 15.5941 1.1572 15.5773 1.19844C15.5605 1.23969 15.5522 1.28387 15.5528 1.32838C15.5534 1.37291 15.5629 1.41686 15.5806 1.45765C15.5985 1.49844 15.6243 1.53524 15.6566 1.56588C15.7212 1.62509 15.8061 1.65704 15.8937 1.65505C15.9812 1.65306 16.0646 1.61728 16.1264 1.5552Z" fill="#3544B6"/>
<path d="M8.87421 17.4446C8.42494 17.8909 7.84822 18.1868 7.22365 18.2913C6.59907 18.3959 5.95745 18.304 5.38733 18.0283C5.32486 17.9977 5.25442 17.9874 5.18582 17.9987C5.1172 18.0101 5.05383 18.0425 5.00451 18.0915C4.96699 18.1288 4.93889 18.1745 4.92254 18.2248C4.90619 18.2751 4.90207 18.3286 4.91052 18.3807C4.91898 18.433 4.93975 18.4824 4.97112 18.525C5.0025 18.5675 5.04358 18.6021 5.09094 18.6256C5.78713 18.9636 6.5713 19.0765 7.33456 18.9485C8.09783 18.8206 8.80231 18.4581 9.35022 17.9116C9.3817 17.8801 9.40656 17.8426 9.42332 17.8014C9.44008 17.7602 9.44841 17.716 9.44782 17.6714C9.44723 17.6269 9.43774 17.583 9.41988 17.5422C9.40203 17.5014 9.37619 17.4645 9.34389 17.4339C9.27939 17.3747 9.19446 17.3427 9.1069 17.3447C9.01935 17.3467 8.93595 17.3825 8.87421 17.4446Z" fill="#3544B6"/>
<path d="M3.97156 16.6137C3.69586 16.0436 3.60393 15.402 3.70848 14.7774C3.81302 14.1528 4.10888 13.5761 4.5552 13.1268C4.61728 13.065 4.65306 12.9817 4.65506 12.8941C4.65705 12.8065 4.62509 12.7216 4.56589 12.6571C4.53524 12.6247 4.49844 12.5989 4.45765 12.5811C4.41686 12.5633 4.3729 12.5538 4.32839 12.5532C4.28388 12.5526 4.23969 12.561 4.19845 12.5777C4.15721 12.5945 4.11973 12.6194 4.08826 12.6508C3.54167 13.1987 3.17923 13.9032 3.05128 14.6665C2.92333 15.4298 3.03621 16.2139 3.37424 16.9101C3.39778 16.9575 3.43226 16.9986 3.47484 17.03C3.51741 17.0613 3.56686 17.0821 3.61907 17.0905C3.67128 17.0989 3.72475 17.0948 3.77505 17.0785C3.82535 17.0622 3.87103 17.0341 3.9083 16.9965C3.95733 16.9472 3.98976 16.8839 4.00111 16.8152C4.01244 16.7466 4.00212 16.6762 3.97156 16.6137Z" fill="#3544B6"/>
</g>
<defs>
<filter id="filter0_d_376_33308" x="-1" y="0" width="27" height="26.9998" filterUnits="userSpaceOnUse" color-interpolation-filters="sRGB">
<feFlood flood-opacity="0" result="BackgroundImageFix"/>
<feColorMatrix in="SourceAlpha" type="matrix" values="0 0 0 0 0 0 0 0 0 0 0 0 0 0 0 0 0 0 127 0" result="hardAlpha"/>
<feOffset dy="4"/>
<feGaussianBlur stdDeviation="2"/>
<feComposite in2="hardAlpha" operator="out"/>
<feColorMatrix type="matrix" values="0 0 0 0 0 0 0 0 0 0 0 0 0 0 0 0 0 0 0.25 0"/>
<feBlend mode="normal" in2="BackgroundImageFix" result="effect1_dropShadow_376_33308"/>
<feBlend mode="normal" in="SourceGraphic" in2="effect1_dropShadow_376_33308" result="shape"/>
</filter>
</defs>
</svg>
