<svg width="12" height="7" viewBox="0 0 12 7" fill="none" xmlns="http://www.w3.org/2000/svg">
<path d="M11.0002 6.35807C10.8128 6.54432 10.5594 6.64886 10.2952 6.64886C10.031 6.64886 9.77756 6.54432 9.59019 6.35807L6.00019 2.81807L2.46019 6.35807C2.27283 6.54432 2.01938 6.64886 1.75519 6.64886C1.49101 6.64886 1.23756 6.54432 1.05019 6.35807C0.956464 6.26511 0.88207 6.15451 0.831301 6.03265C0.780533 5.91079 0.754395 5.78008 0.754395 5.64807C0.754395 5.51606 0.780533 5.38535 0.831301 5.2635C0.88207 5.14164 0.956464 5.03104 1.05019 4.93807L5.29019 0.698072C5.38316 0.604344 5.49376 0.52995 5.61562 0.479181C5.73747 0.428412 5.86818 0.402274 6.00019 0.402274C6.1322 0.402274 6.26291 0.428412 6.38477 0.479181C6.50663 0.52995 6.61723 0.604344 6.71019 0.698072L11.0002 4.93807C11.0939 5.03104 11.1683 5.14164 11.2191 5.2635C11.2699 5.38535 11.296 5.51606 11.296 5.64807C11.296 5.78008 11.2699 5.91079 11.2191 6.03265C11.1683 6.15451 11.0939 6.26511 11.0002 6.35807Z" fill="#5F5D59"/>
</svg>
