<svg width="5" height="14" viewBox="0 0 5 14" fill="none" xmlns="http://www.w3.org/2000/svg">
<path d="M4.87713 0.868985L1.59588 13.0593H0.268466L3.54972 0.868985H4.87713Z" fill="#706D64"/>
<path d="M4.87713 0.868985L5.84276 1.1289L6.18189 -0.131015H4.87713V0.868985ZM1.59588 13.0593V14.0593H2.36231L2.56151 13.3192L1.59588 13.0593ZM0.268466 13.0593L-0.697165 12.7994L-1.03629 14.0593H0.268466V13.0593ZM3.54972 0.868985V-0.131015H2.78329L2.58409 0.609068L3.54972 0.868985ZM3.9115 0.609068L0.63025 12.7994L2.56151 13.3192L5.84276 1.1289L3.9115 0.609068ZM1.59588 12.0593H0.268466V14.0593H1.59588V12.0593ZM1.2341 13.3192L4.51535 1.1289L2.58409 0.609068L-0.697165 12.7994L1.2341 13.3192ZM3.54972 1.86898H4.87713V-0.131015H3.54972V1.86898Z" fill="black"/>
</svg>
